<svg width="88" height="44" viewBox="0 0 88 44" fill="none" xmlns="http://www.w3.org/2000/svg">
<path d="M0 5C0 2.23858 2.23858 0 5 0H44V44H5C2.23858 44 0 41.7614 0 39V5Z" fill="#4C5255" fill-opacity="0.4"/>
<path d="M44 0H83C85.7614 0 88 2.23858 88 5V39C88 41.7614 85.7614 44 83 44H44V0Z" fill="#AEB5B9" fill-opacity="0.5"/>
<path d="M58.926 21.876C58.478 21.876 58.0627 21.7733 57.68 21.568C57.3067 21.3533 57.008 21.064 56.784 20.7C56.5693 20.3267 56.462 19.9207 56.462 19.482C56.462 19.0433 56.5693 18.642 56.784 18.278C57.008 17.9047 57.3067 17.6107 57.68 17.396C58.0627 17.1813 58.478 17.074 58.926 17.074C59.374 17.074 59.7847 17.1813 60.158 17.396C60.5313 17.6107 60.8253 17.9047 61.04 18.278C61.264 18.642 61.376 19.0433 61.376 19.482C61.376 19.9207 61.264 20.3267 61.04 20.7C60.8253 21.064 60.5313 21.3533 60.158 21.568C59.7847 21.7733 59.374 21.876 58.926 21.876ZM58.926 20.798C59.2993 20.798 59.6073 20.672 59.85 20.42C60.102 20.168 60.228 19.8553 60.228 19.482C60.228 19.1087 60.102 18.796 59.85 18.544C59.6073 18.292 59.2993 18.166 58.926 18.166C58.5527 18.166 58.24 18.292 57.988 18.544C57.7453 18.796 57.624 19.1087 57.624 19.482C57.624 19.8553 57.7453 20.168 57.988 20.42C58.24 20.672 58.5527 20.798 58.926 20.798ZM67.8403 27.168C66.8416 27.168 65.9363 26.9533 65.1243 26.524C64.3216 26.0853 63.6869 25.4833 63.2203 24.718C62.7629 23.9433 62.5343 23.0707 62.5343 22.1C62.5343 21.1293 62.7629 20.2613 63.2203 19.496C63.6869 18.7213 64.3216 18.1193 65.1243 17.69C65.9363 17.2513 66.8463 17.032 67.8543 17.032C68.7036 17.032 69.4689 17.1813 70.1503 17.48C70.8409 17.7787 71.4196 18.208 71.8863 18.768L70.4303 20.112C69.7676 19.3467 68.9463 18.964 67.9663 18.964C67.3596 18.964 66.8183 19.0993 66.3423 19.37C65.8663 19.6313 65.4929 20 65.2223 20.476C64.9609 20.952 64.8303 21.4933 64.8303 22.1C64.8303 22.7067 64.9609 23.248 65.2223 23.724C65.4929 24.2 65.8663 24.5733 66.3423 24.844C66.8183 25.1053 67.3596 25.236 67.9663 25.236C68.9463 25.236 69.7676 24.8487 70.4303 24.074L71.8863 25.418C71.4196 25.9873 70.8409 26.4213 70.1503 26.72C69.4596 27.0187 68.6896 27.168 67.8403 27.168Z" fill="white"/>
<path d="M17.926 21.876C17.478 21.876 17.0627 21.7733 16.68 21.568C16.3067 21.3533 16.008 21.064 15.784 20.7C15.5693 20.3267 15.462 19.9207 15.462 19.482C15.462 19.0433 15.5693 18.642 15.784 18.278C16.008 17.9047 16.3067 17.6107 16.68 17.396C17.0627 17.1813 17.478 17.074 17.926 17.074C18.374 17.074 18.7847 17.1813 19.158 17.396C19.5313 17.6107 19.8253 17.9047 20.04 18.278C20.264 18.642 20.376 19.0433 20.376 19.482C20.376 19.9207 20.264 20.3267 20.04 20.7C19.8253 21.064 19.5313 21.3533 19.158 21.568C18.7847 21.7733 18.374 21.876 17.926 21.876ZM17.926 20.798C18.2993 20.798 18.6073 20.672 18.85 20.42C19.102 20.168 19.228 19.8553 19.228 19.482C19.228 19.1087 19.102 18.796 18.85 18.544C18.6073 18.292 18.2993 18.166 17.926 18.166C17.5527 18.166 17.24 18.292 16.988 18.544C16.7453 18.796 16.624 19.1087 16.624 19.482C16.624 19.8553 16.7453 20.168 16.988 20.42C17.24 20.672 17.5527 20.798 17.926 20.798ZM24.2816 19.02V21.61H28.8176V23.43H24.2816V27H22.0136V17.2H29.4196V19.02H24.2816Z" fill="white" fill-opacity="0.4"/>
</svg>
